<svg version="1.1" id="Layer_1" xmlns="http://www.w3.org/2000/svg" xmlns:xlink="http://www.w3.org/1999/xlink" x="0px" y="0px"
	 width="1187.929px" height="272.393px" viewBox="0 0 1187.929 272.393" enable-background="new 0 0 1187.929 272.393"
	 xml:space="preserve">
<g>
	<path fill="#363636" d="M227.244,226.184l-19.162,45.438h5.788c0,0,5.747-14.02,6.244-15.234h18.686
		c0.501,1.207,6.373,15.234,6.373,15.234h5.771l-19.017-45.438H227.244z M222.144,251.631c0.999-2.395,5.83-13.971,5.83-13.971
		s0.82-2.195,1.533-4.113c0.733,2.029,1.554,4.32,1.554,4.32s4.769,11.377,5.771,13.764H222.144z M43.681,262.975
		c-1.077-4.047-10.536-36.791-10.536-36.791h-4.823c0,0-10.764,32.574-12.123,36.891c-1.11-3.953-10.573-36.891-10.573-36.891H0
		l13.449,45.438h4.831c0,0,11.327-33.414,12.181-36.377c0.671,2.852,10.524,36.377,10.524,36.377h4.818l15.707-45.438h-5.734
		C55.775,226.184,44.734,259.598,43.681,262.975 M394.114,230.932h16.858v40.689h5.457v-40.689h16.851v-4.748h-39.166V230.932z
		 M980.915,250.094h20.145v-4.76h-20.145v-14.402h21.283v-4.748H975.45v45.438h27.9v-4.76h-22.436V250.094z M809.396,245.139
		h-26.168v-18.955h-5.465v45.438h5.465v-21.723h26.168v21.723h5.457v-45.438h-5.457V245.139z M619.013,265.365
		c-2.883,1.385-7.18,2.209-11.463,2.209c-12.525,0-20.613-7.146-20.613-18.227c0-11.828,8.209-19.188,21.412-19.188
		c3.832,0,7.744,0.771,10.471,2.072l1.053,0.51l1.881-4.629l-0.924-0.422c-3.266-1.5-7.645-2.283-12.688-2.283
		c-17.588,0-26.802,11.916-26.802,23.684c0,16.096,12.55,23.301,24.996,23.301c6.77,0,12-1.352,14.646-2.615l0.891-0.422l-1.799-4.5
		L619.013,265.365z M1174.479,245.641c-7.873-2.42-9.451-5.051-9.451-8.502c0-3.244,2.512-7.045,9.588-7.045
		c5.014,0,8.008,1.857,8.332,2.08l1.043,0.676l2.221-4.582l-0.803-0.51c-1.814-1.135-5.576-2.35-10.656-2.35
		c-8.76,0-15.123,5.117-15.123,12.186c0,6.211,4.031,10.08,13.457,12.955c7.9,2.42,9.447,5.162,9.447,9.09
		c0,4.854-4.193,7.992-10.678,7.992c-3.832,0-7.604-1.076-10.607-3.027l-1.043-0.68l-2.195,4.541l0.736,0.525
		c2.859,2.002,8.096,3.402,12.721,3.402c11.367,0,16.461-6.576,16.461-13.076C1187.929,251.439,1182.558,248.15,1174.479,245.641"/>
	<polygon fill="#363636" points="862.739,0 872.981,52.66 890.282,52.66 900.761,0 	"/>
	<path fill="#363636" d="M222.02,84.479c10.574-8.075,15.951-18.18,15.951-30.179c0-12.33-6.235-23.405-18.014-32.027
		c-10.979-8.025-24.329-12.479-39.634-12.777c-0.079,0-180.318-0.008-180.318-0.008v166.215h115.254
		c23.367,0,45.803-0.439,66.692-1.313c16.428-0.867,30.394-6.074,41.618-15.459c11.94-10.305,17.948-22.158,17.948-35.333v-1.811
		C241.518,110.75,237.631,96.283,222.02,84.479 M34.43,40.296h152.588c8.519,0,15.417,6.256,15.417,13.971
		c0,7.719-6.898,13.971-15.417,13.971H34.43V40.296z M180.534,144.895H34.43v-44.418h0.033h146.071
		c14.671,0,26.549,9.943,26.549,22.211C207.083,134.951,195.205,144.895,180.534,144.895"/>
	<path fill="#363636" d="M796.917,84.479c10.568-8.075,15.951-18.18,15.951-30.179c0-12.33-6.236-23.405-18.016-32.027
		c-10.979-8.025-24.336-12.479-39.633-12.777c-0.078,0-180.327-0.008-180.327-0.008v166.215h115.262
		c23.367,0,45.795-0.439,66.686-1.313c16.426-0.867,30.402-6.074,41.625-15.459c11.941-10.305,17.949-22.158,17.949-35.333v-1.811
		C816.415,110.75,812.521,96.283,796.917,84.479 M609.323,40.296h152.592c8.51,0,15.408,6.256,15.408,13.971
		c0,7.719-6.898,13.971-15.408,13.971H609.323V40.296z M755.431,144.895H609.323v-44.418h0.053h146.055
		c14.664,0,26.551,9.943,26.551,22.211C781.981,134.951,770.095,144.895,755.431,144.895"/>
	<path fill="#363636" d="M1170.792,159.146l-0.055,0.025c-0.008,0.018-0.016,0.025-0.033,0.033L1170.792,159.146z M1187.829,123.126
		c0-11.107-3.791-21.188-11.287-29.963c-11.166-12.753-30.129-20.302-56.305-22.738c-2.42-0.178-17.455-0.501-17.455-0.484
		c-8.412,0.05-103.58-0.05-103.58-0.05c-7.143,0-12.939-6.782-12.939-15.131c0-8.357,5.797-15.127,12.939-15.127l132.191,0.133
		c4.447,0.008,8.926,2.486,11.217,6.297c2.527,4.209,1.977,9.131,1.797,13.838c-0.057,1.545-0.123,3.091-0.186,4.624h36.58
		c0.307-3.021,0.281-6.219,0.281-9.256c0-12.973-5.262-24.834-17.211-33.667c-10.764-8.249-25.053-11.813-40.777-12.11h-113.406
		c-15.789,0.298-29.279,4.677-40.168,13.009c-16.154,12.388-21.689,32.267-14.559,51.504c2.52,6.812,6.947,12.661,12.914,16.768
		c10.623,7.263,26.346,10.437,42.551,10.233l0.385,0.033h107.871c1.441,0,12.754,0.083,12.754,0.083
		c12.006,0,21.738,9.827,21.738,21.954c0,12.123-9.732,21.951-21.738,21.951l-117.92,0.195c-15.818-0.203-29.428-8.842-30.41-19.246
		l-0.738-7.748h-35.291l1.053,9.513c1.246,11.422,6.17,21.383,14.605,29.586c12.098,11.318,27.025,17.473,44.477,18.371
		c11.057,0.451,110.41,0.451,121.041,0c16.988-0.891,31.244-6.463,42.484-16.527
		C1182.073,149.229,1187.829,137.109,1187.829,123.126"/>
	<path fill="#AFC136" d="M307.183,25.008c-10.404,8.995-16.726,20.053-18.856,32.872c-0.397,2.138-0.472,6.177-0.489,24.498h32.495
		V68.875c0-16.088,12.918-29.126,28.861-29.126h48.678V9.488h-50.111C331.722,9.488,318.128,15.632,307.183,25.008"/>
	<path fill="#363636" d="M527.201,54.976c-0.882-12.219-7.254-23.053-18.93-32.081c-11.626-8.369-24.834-13.407-39.567-13.407
		H418.53v30.257h48.715c15.935,0,28.849,13.042,28.849,29.139l-0.033,47.431c0,16.088-12.915,29.13-28.849,29.13H349.165
		c-15.935,0-28.857-13.042-28.857-29.13v-12.794h-32.474c0.178,9.132,0.622,17.928,1.367,26.694
		c0.891,12.218,7.263,23.052,18.947,32.082c11.617,8.369,24.826,13.406,39.55,13.406h120.947c16.038,0,29.62-6.148,40.574-15.52
		c10.387-9,16.726-20.049,18.855-32.869c0.46-2.481,0.493-7.445,0.493-34.119v-1.852C528.568,87.984,527.947,63.743,527.201,54.976"
		/>
</g>
</svg>
